<?xml version="1.0" encoding="UTF-8" standalone="no"?>
<svg
    version="1.1"
    xmlns="http://www.w3.org/2000/svg"
    xmlns:svg="http://www.w3.org/2000/svg"
    xmlns:xlink="http://www.w3.org/1999/xlink">

    <!-- ARROW BACK -->
    <symbol id="ic_arrow_back_24px" viewBox="0 0 24 24"><path d="M20 11H7.83l5.59-5.59L12 4l-8 8 8 8 1.41-1.41L7.83 13H20v-2z"/></symbol>
    <symbol id="ic_arrow_back_48px" viewBox="0 0 48 48"><path d="M40 22H15.66l11.17-11.17L24 8 8 24l16 16 2.83-2.83L15.66 26H40v-4z"/></symbol>
    <!-- CHEVRON_DOWN -->
    <symbol id="ic_chevron_down_24px" viewBox="0 0 24 24"><path d="M16.59 8.59L12 13.17 7.41 8.59 6 10l6 6 6-6z"/></symbol>
    <!-- CHEVRON_UP -->
    <symbol id="ic_chevron_up_24px" viewBox="0 0 24 24"><path d="M12 8l-6 6 1.41 1.41L12 10.83l4.59 4.58L18 14z"/></symbol>
    <!-- CLEAR -->
    <symbol id="ic_clear_24px" viewBox="0 0 24 24"><path d="M19 6.41L17.59 5 12 10.59 6.41 5 5 6.41 10.59 12 5 17.59 6.41 19 12 13.41 17.59 19 19 17.59 13.41 12z"/></symbol>
    <!-- FIRST_PAGE -->
    <symbol id="ic_first_page_24px" viewBox="0 0 24 24"><path d="M18.41 16.59L13.82 12l4.59-4.59L17 6l-6 6 6 6zM6 6h2v12H6z"/></symbol>
    <!-- LAST_PAGE -->
    <symbol id="ic_last_page_24px" viewBox="0 0 24 24"><path d="M5.59 7.41L10.18 12l-4.59 4.59L7 18l6-6-6-6zM16 6h2v12h-2z"/></symbol>
    <!-- MENU -->
    <symbol id="ic_menu_24px" viewBox="0 0 24 24"><path d="M3 18h18v-2H3v2zm0-5h18v-2H3v2zm0-7v2h18V6H3z"/></symbol>
    <!-- PAUSE -->
    <symbol id="ic_pause_24px" viewBox="0 0 24 24"><path d="M6 19h4V5H6v14zm8-14v14h4V5h-4z"/></symbol>
    <!-- PAUSE CIRCLE OUTLINE -->
    <symbol id="ic_pause_circle_outline_24px" viewBox="0 0 24 24"><path d="M9 16h2V8H9v8zm3-14C6.48 2 2 6.48 2 12s4.48 10 10 10 10-4.48 10-10S17.52 2 12 2zm0 18c-4.41 0-8-3.59-8-8s3.59-8 8-8 8 3.59 8 8-3.59 8-8 8zm1-4h2V8h-2v8z"/></symbol>
    <!-- PLAY -->
    <symbol id="ic_play_24px" viewBox="0 0 24 24"><path d="M8 5v14l11-7z"/></symbol>
    <!-- PLAY CIRCLE OUTLINE -->
    <symbol id="ic_play_circle_outline_24px" viewBox="0 0 24 24"><path d="M10 16.5l6-4.5-6-4.5v9zM12 2C6.48 2 2 6.48 2 12s4.48 10 10 10 10-4.48 10-10S17.52 2 12 2zm0 18c-4.41 0-8-3.59-8-8s3.59-8 8-8 8 3.59 8 8-3.59 8-8 8z"/></symbol>
    <!-- PLAYLIST PLAY -->
    <symbol id="ic_playlist_play_24px" viewBox="0 0 24 24"><path d="M19 9H2v2h17V9zm0-4H2v2h17V5zM2 15h13v-2H2v2zm15-2v6l5-3-5-3z"/></symbol>
    <!-- REPEAT -->
    <symbol id="ic_repeat_24px" viewBox="0 0 24 24"><path d="M7 7h10v3l4-4-4-4v3H5v6h2V7zm10 10H7v-3l-4 4 4 4v-3h12v-6h-2v4z"/></symbol>
    <!-- SKIP NEXT -->
    <symbol id="ic_skip_next_24px" viewBox="0 0 24 24"><path d="M6 18l8.5-6L6 6v12zM16 6v12h2V6h-2z"/></symbol>
    <!-- SKIP PREVIOUS -->
    <symbol id="ic_skip_previous_24px" viewBox="0 0 24 24"><path d="M6 6h2v12H6zm3.5 6l8.5 6V6z"/></symbol>
    <!-- STOP -->
    <symbol id="ic_stop_24px" viewBox="0 0 24 24"><path d="M6 6h12v12H6z"/></symbol>

</svg>