<?xml version="1.0" encoding="UTF-8" standalone="no"?>
<svg
    version="1.1"
    xmlns="http://www.w3.org/2000/svg"
    xmlns:svg="http://www.w3.org/2000/svg"
    xmlns:xlink="http://www.w3.org/1999/xlink">

    <!-- ADD -->
    <symbol id="ic_add_24px" viewBox="0 0 24 24"><path d="M19 13h-6v6h-2v-6H5v-2h6V5h2v6h6v2z"/></symbol>
    <!-- ARROW BACK -->
    <symbol id="ic_arrow_back_24px" viewBox="0 0 24 24"><path d="M20 11H7.83l5.59-5.59L12 4l-8 8 8 8 1.41-1.41L7.83 13H20v-2z"/></symbol>
    <symbol id="ic_arrow_back_48px" viewBox="0 0 48 48"><path d="M40 22H15.66l11.17-11.17L24 8 8 24l16 16 2.83-2.83L15.66 26H40v-4z"/></symbol>
    <!-- CHEVRON_DOWN -->
    <symbol id="ic_chevron_down_24px" viewBox="0 0 24 24"><path d="M16.59 8.59L12 13.17 7.41 8.59 6 10l6 6 6-6z"/></symbol>
    <!-- CHEVRON_UP -->
    <symbol id="ic_chevron_up_24px" viewBox="0 0 24 24"><path d="M12 8l-6 6 1.41 1.41L12 10.83l4.59 4.58L18 14z"/></symbol>
    <!-- CLEAR -->
    <symbol id="ic_clear_24px" viewBox="0 0 24 24"><path d="M19 6.41L17.59 5 12 10.59 6.41 5 5 6.41 10.59 12 5 17.59 6.41 19 12 13.41 17.59 19 19 17.59 13.41 12z"/></symbol>
    <!-- DELETE -->
    <symbol id="ic_delete_24px" viewBox="0 0 24 24"><path d="M6 19c0 1.1.9 2 2 2h8c1.1 0 2-.9 2-2V7H6v12zM19 4h-3.5l-1-1h-5l-1 1H5v2h14V4z"/></symbol>
    <!-- DRAG_HANDLE -->
    <symbol id="ic_drag_handle_24px" viewBox="0 0 24 24"><path d="M20 9H4v2h16V9zM4 15h16v-2H4v2z"/></symbol>
    <!-- ERROR -->
    <symbol id="ic_error_24px" viewBox="0 0 24 24"><path d="M12 2C6.48 2 2 6.48 2 12s4.48 10 10 10 10-4.48 10-10S17.52 2 12 2zm1 15h-2v-2h2v2zm0-4h-2V7h2v6z"/></symbol>
    <!-- FIRST_PAGE -->
    <symbol id="ic_first_page_24px" viewBox="0 0 24 24"><path d="M18.41 16.59L13.82 12l4.59-4.59L17 6l-6 6 6 6zM6 6h2v12H6z"/></symbol>
    <!-- INSERT_DRIVE_FILE (it's really just a page) -->
    <symbol id="ic_insert_drive_file_24px" viewBox="0 0 24 24"><path d="M6 2c-1.1 0-1.99.9-1.99 2L4 20c0 1.1.89 2 1.99 2H18c1.1 0 2-.9 2-2V8l-6-6H6zm7 7V3.5L18.5 9H13z"/></symbol>
    <!-- INVERT_COLORS -->
    <symbol id="ic_invert_colors_24px" viewBox="0 0 24 24"><path d="M17.66 7.93L12 2.27 6.34 7.93c-3.12 3.12-3.12 8.19 0 11.31C7.9 20.8 9.95 21.58 12 21.58c2.05 0 4.1-.78 5.66-2.34 3.12-3.12 3.12-8.19 0-11.31zM12 19.59c-1.6 0-3.11-.62-4.24-1.76C6.62 16.69 6 15.19 6 13.59s.62-3.11 1.76-4.24L12 5.1v14.49z"/></symbol>
    <!-- LAST_PAGE -->
    <symbol id="ic_last_page_24px" viewBox="0 0 24 24"><path d="M5.59 7.41L10.18 12l-4.59 4.59L7 18l6-6-6-6zM16 6h2v12h-2z"/></symbol>
    <!-- LIBRARY_ADD -->
    <symbol id="ic_library_add_24px" viewBox="0 0 24 24"><path d="M4 6H2v14c0 1.1.9 2 2 2h14v-2H4V6zm16-4H8c-1.1 0-2 .9-2 2v12c0 1.1.9 2 2 2h12c1.1 0 2-.9 2-2V4c0-1.1-.9-2-2-2zm-1 9h-4v4h-2v-4H9V9h4V5h2v4h4v2z"/></symbol>
    <!-- LIBRARY_MUSIC -->
    <symbol id="ic_library_music_24px" viewBox="0 0 24 24"><path d="M20 2H8c-1.1 0-2 .9-2 2v12c0 1.1.9 2 2 2h12c1.1 0 2-.9 2-2V4c0-1.1-.9-2-2-2zm-2 5h-3v5.5c0 1.38-1.12 2.5-2.5 2.5S10 13.88 10 12.5s1.12-2.5 2.5-2.5c.57 0 1.08.19 1.5.51V5h4v2zM4 6H2v14c0 1.1.9 2 2 2h14v-2H4V6z"/></symbol>
    <!-- MENU -->
    <symbol id="ic_menu_24px" viewBox="0 0 24 24"><path d="M3 18h18v-2H3v2zm0-5h18v-2H3v2zm0-7v2h18V6H3z"/></symbol>
    <!-- NATURE_PEOPLE -->
    <symbol id="ic_nature_people_24px" viewBox="0 0 24 24"><path d="M22.17 9.17c0-3.87-3.13-7-7-7s-7 3.13-7 7c0 3.47 2.52 6.34 5.83 6.89V20H6v-3h1v-4c0-.55-.45-1-1-1H3c-.55 0-1 .45-1 1v4h1v5h16v-2h-3v-3.88c3.47-.41 6.17-3.36 6.17-6.95zM4.5 11c.83 0 1.5-.67 1.5-1.5S5.33 8 4.5 8 3 8.67 3 9.5 3.67 11 4.5 11z"/></symbol>
    <!-- NOTE -->
    <symbol id="ic_note_24px" viewBox="0 0 24 24"><path d="M22 10l-6-6H4c-1.1 0-2 .9-2 2v12.01c0 1.1.9 1.99 2 1.99l16-.01c1.1 0 2-.89 2-1.99v-8zm-7-4.5l5.5 5.5H15V5.5z"/></symbol>
    <!-- NOTE_ADD -->
    <symbol id="ic_note_add_24px" viewBox="0 0 24 24"><path d="M14 2H6c-1.1 0-1.99.9-1.99 2L4 20c0 1.1.89 2 1.99 2H18c1.1 0 2-.9 2-2V8l-6-6zm2 14h-3v3h-2v-3H8v-2h3v-3h2v3h3v2zm-3-7V3.5L18.5 9H13z"/></symbol>
    <!-- OPEN_IN_BROWSER -->
    <symbol id="ic_open_in_browser_24px" viewBox="0 0 24 24"><path d="M19 4H5c-1.11 0-2 .9-2 2v12c0 1.1.89 2 2 2h4v-2H5V8h14v10h-4v2h4c1.1 0 2-.9 2-2V6c0-1.1-.89-2-2-2zm-7 6l-4 4h3v6h2v-6h3l-4-4z"/></symbol>
    <!-- PAUSE -->
    <symbol id="ic_pause_24px" viewBox="0 0 24 24"><path d="M6 19h4V5H6v14zm8-14v14h4V5h-4z"/></symbol>
    <!-- PAUSE CIRCLE OUTLINE -->
    <symbol id="ic_pause_circle_outline_24px" viewBox="0 0 24 24"><path d="M9 16h2V8H9v8zm3-14C6.48 2 2 6.48 2 12s4.48 10 10 10 10-4.48 10-10S17.52 2 12 2zm0 18c-4.41 0-8-3.59-8-8s3.59-8 8-8 8 3.59 8 8-3.59 8-8 8zm1-4h2V8h-2v8z"/></symbol>
    <!-- PLAY -->
    <symbol id="ic_play_24px" viewBox="0 0 24 24"><path d="M8 5v14l11-7z"/></symbol>
    <!-- PLAY CIRCLE OUTLINE -->
    <symbol id="ic_play_circle_outline_24px" viewBox="0 0 24 24"><path d="M10 16.5l6-4.5-6-4.5v9zM12 2C6.48 2 2 6.48 2 12s4.48 10 10 10 10-4.48 10-10S17.52 2 12 2zm0 18c-4.41 0-8-3.59-8-8s3.59-8 8-8 8 3.59 8 8-3.59 8-8 8z"/></symbol>
    <!-- PLAYLIST PLAY -->
    <symbol id="ic_playlist_play_24px" viewBox="0 0 24 24"><path d="M19 9H2v2h17V9zm0-4H2v2h17V5zM2 15h13v-2H2v2zm15-2v6l5-3-5-3z"/></symbol>
    <!-- QUEUE_MUSIC -->
    <symbol id="ic_queue_music_24px" viewBox="0 0 24 24"><path d="M15 6H3v2h12V6zm0 4H3v2h12v-2zM3 16h8v-2H3v2zM17 6v8.18c-.31-.11-.65-.18-1-.18-1.66 0-3 1.34-3 3s1.34 3 3 3 3-1.34 3-3V8h3V6h-5z"/></symbol>
    <!-- REPEAT -->
    <symbol id="ic_repeat_24px" viewBox="0 0 24 24"><path d="M7 7h10v3l4-4-4-4v3H5v6h2V7zm10 10H7v-3l-4 4 4 4v-3h12v-6h-2v4z"/></symbol>
    <!-- SETTINGS -->
    <symbol id="ic_settings_24px" viewBox="0 0 24 24"><path d="M19.43 12.98c.04-.32.07-.64.07-.98s-.03-.66-.07-.98l2.11-1.65c.19-.15.24-.42.12-.64l-2-3.46c-.12-.22-.39-.3-.61-.22l-2.49 1c-.52-.4-1.08-.73-1.69-.98l-.38-2.65C14.46 2.18 14.25 2 14 2h-4c-.25 0-.46.18-.49.42l-.38 2.65c-.61.25-1.17.59-1.69.98l-2.49-1c-.23-.09-.49 0-.61.22l-2 3.46c-.13.22-.07.49.12.64l2.11 1.65c-.04.32-.07.65-.07.98s.03.66.07.98l-2.11 1.65c-.19.15-.24.42-.12.64l2 3.46c.12.22.39.3.61.22l2.49-1c.52.4 1.08.73 1.69.98l.38 2.65c.03.24.24.42.49.42h4c.25 0 .46-.18.49-.42l.38-2.65c.61-.25 1.17-.59 1.69-.98l2.49 1c.23.09.49 0 .61-.22l2-3.46c.12-.22.07-.49-.12-.64l-2.11-1.65zM12 15.5c-1.93 0-3.5-1.57-3.5-3.5s1.57-3.5 3.5-3.5 3.5 1.57 3.5 3.5-1.57 3.5-3.5 3.5z"/></symbol>
    <!-- SETTINGS_APPLICATION -->
    <symbol id="ic_settings_application_24px" viewBox="0 0 24 24"><path d="M12 10c-1.1 0-2 .9-2 2s.9 2 2 2 2-.9 2-2-.9-2-2-2zm7-7H5c-1.11 0-2 .9-2 2v14c0 1.1.89 2 2 2h14c1.11 0 2-.9 2-2V5c0-1.1-.89-2-2-2zm-1.75 9c0 .23-.02.46-.05.68l1.48 1.16c.13.11.17.3.08.45l-1.4 2.42c-.09.15-.27.21-.43.15l-1.74-.7c-.36.28-.76.51-1.18.69l-.26 1.85c-.03.17-.18.3-.35.3h-2.8c-.17 0-.32-.13-.35-.29l-.26-1.85c-.43-.18-.82-.41-1.18-.69l-1.74.7c-.16.06-.34 0-.43-.15l-1.4-2.42c-.09-.15-.05-.34.08-.45l1.48-1.16c-.03-.23-.05-.46-.05-.69 0-.23.02-.46.05-.68l-1.48-1.16c-.13-.11-.17-.3-.08-.45l1.4-2.42c.09-.15.27-.21.43-.15l1.74.7c.36-.28.76-.51 1.18-.69l.26-1.85c.03-.17.18-.3.35-.3h2.8c.17 0 .32.13.35.29l.26 1.85c.43.18.82.41 1.18.69l1.74-.7c.16-.06.34 0 .43.15l1.4 2.42c.09.15.05.34-.08.45l-1.48 1.16c.03.23.05.46.05.69z"/></symbol>
    <!-- SIGNAL_CELLULAR_4_BAR -->
    <symbol id="ic_signal_cellular_4_bar_24px" viewBox="0 0 24 24"><path d="M2 22h20V2z"/></symbol>
    <!-- SIGNAL_CELLULAR_OFF -->
    <symbol id="ic_signal_cellular_off_24px" viewBox="0 0 24 24"><path d="M21 1l-8.59 8.59L21 18.18V1zM4.77 4.5L3.5 5.77l6.36 6.36L1 21h17.73l2 2L22 21.73 4.77 4.5z"/></symbol>
    <!-- SKIP NEXT -->
    <symbol id="ic_skip_next_24px" viewBox="0 0 24 24"><path d="M6 18l8.5-6L6 6v12zM16 6v12h2V6h-2z"/></symbol>
    <!-- SKIP PREVIOUS -->
    <symbol id="ic_skip_previous_24px" viewBox="0 0 24 24"><path d="M6 6h2v12H6zm3.5 6l8.5 6V6z"/></symbol>
    <!-- STOP -->
    <symbol id="ic_stop_24px" viewBox="0 0 24 24"><path d="M6 6h12v12H6z"/></symbol>
    <!-- SUBDIRECTORY_ARROW_RIGHT -->
    <symbol id="ic_subdirectory_arrow_right_24px" viewBox="0 0 24 24"><path d="M19 15l-6 6-1.42-1.42L15.17 16H4V4h2v10h9.17l-3.59-3.58L13 9l6 6z"/></symbol>
    <!-- SYSTEM_UPDATE_ALT -->
    <symbol id="ic_system_update_alt_24px" viewBox="0 0 24 24"><path d="M12 16.5l4-4h-3v-9h-2v9H8l4 4zm9-13h-6v1.99h6v14.03H3V5.49h6V3.5H3c-1.1 0-2 .9-2 2v14c0 1.1.9 2 2 2h18c1.1 0 2-.9 2-2v-14c0-1.1-.9-2-2-2z"/></symbol>
    <!-- VIEW_WEEK -->
    <symbol id="ic_view_week_24px" viewBox="0 0 24 24"><path d="M6 5H3c-.55 0-1 .45-1 1v12c0 .55.45 1 1 1h3c.55 0 1-.45 1-1V6c0-.55-.45-1-1-1zm14 0h-3c-.55 0-1 .45-1 1v12c0 .55.45 1 1 1h3c.55 0 1-.45 1-1V6c0-.55-.45-1-1-1zm-7 0h-3c-.55 0-1 .45-1 1v12c0 .55.45 1 1 1h3c.55 0 1-.45 1-1V6c0-.55-.45-1-1-1z"/></symbol>
    <!-- WARNING -->
    <symbol id="ic_warning_24px" viewBox="0 0 24 24"><path d="M1 21h22L12 2 1 21zm12-3h-2v-2h2v2zm0-4h-2v-4h2v4z"/></symbol>
    <!-- WHATSHOT -->
    <symbol id="ic_whatshot_24px" viewBox="0 0 24 24"><path d="M13.5.67s.74 2.65.74 4.8c0 2.06-1.35 3.73-3.41 3.73-2.07 0-3.63-1.67-3.63-3.73l.03-.36C5.21 7.51 4 10.62 4 14c0 4.42 3.58 8 8 8s8-3.58 8-8C20 8.61 17.41 3.8 13.5.67zM11.71 19c-1.78 0-3.22-1.4-3.22-3.14 0-1.62 1.05-2.76 2.81-3.12 1.77-.36 3.6-1.21 4.62-2.58.39 1.29.59 2.65.59 4.04 0 2.65-2.15 4.8-4.8 4.8z"/></symbol>

</svg>